<svg xmlns="http://www.w3.org/2000/svg" viewBox="0 0 135.82 75.05"><defs><style>.cls-1{fill:#050505;}.cls-2,.cls-3{font-size:20px;letter-spacing:0.02em;}.cls-2{font-family:BookAntiqua-Bold, Book Antiqua;font-weight:700;}.cls-3{font-family:BookAntiqua, Book Antiqua;}</style></defs><title>Ресурс 13</title><g id="Слой_2" data-name="Слой 2"><g id="Слой_2-2" data-name="Слой 2"><path class="cls-1" d="M27.9,51.33a10.56,10.56,0,0,1-7,2.84c-3.07-.09-5.15-1.88-8.5-4.84a36,36,0,0,1-8-9.5C2,35.75-.44,31.47.07,25.83c.16-1.88.6-6.76,4.33-9.66,4.48-3.49,10.91-1.93,12.67-1.5,3.52.85,3.76,2,7.66,2.66,2.41.41,5.5.92,8.5-.5,2.66-1.25,2.27-2.6,6.5-5.66a13.61,13.61,0,0,1,5.5-2.84c1.06-.21,4.58-.94,6.5,1,1.54,1.56,1.42,4.19,1.34,6.17-.13,2.77-1,4.19-.17,5s2.73.25,3.24.09c4-1.26,22.16-6.1,47.26-12.76a5.27,5.27,0,0,0,1.67-1,5.6,5.6,0,0,0,1.5-2.16,9.58,9.58,0,0,0,3.66.16C113.81,4.3,114.78,2,116.9,2c3.66.06,7,6.88,6,7.83-.74.72-3.34-2.44-8.17-2.83a13.8,13.8,0,0,0-7.16,1.5L56.9,23.17C45,21,40.47,22.83,38.7,25.37c-1.5,2.15-.54,4.1-2.47,6-3.52,3.41-9.12-.84-13.33,2.34-2.83,2.13-3.82,6.69-2.69,10.45C21.9,49.74,27.62,51.27,27.9,51.33Z"/><circle class="cls-1" cx="107.32" cy="3" r="1"/><circle class="cls-1" cx="111.23" cy="2" r="1"/><circle class="cls-1" cx="114.96" cy="1" r="1"/><text class="cls-2" transform="translate(26.82 48.83)">GUITAR</text><text class="cls-3" transform="translate(48.32 68.83)">SCHOOL</text></g></g></svg>